{"title":"Occupant 2011 DVDrip English Klam","uid":6928505,"size":1373008921,"categoryP":"video","categoryS":"movies","magnet":"?xt=urn:btih:3b5dad8d5aeb93d14dd6c26333172a5d414107f9&amp;dn=Occupant+2011+DVDrip+English+Klam&amp;tr=udp%3A%2F%2Ftracker.openbittorrent.com%3A80&amp;tr=udp%3A%2F%2Fopen.demonii.com%3A1337&amp;tr=udp%3A%2F%2Ftracker.coppersurfer.tk%3A6969&amp;tr=udp%3A%2F%2Fexodus.desync.com%3A6969","seeders":0,"leechers":0,"uploader":"Klambake","files":-1,"time":1325588560,"description":"With: Van Hansis, Cody Horn and Thorsten Kaye\n\nDe 25-jarige Danny Hill krijgt de kans van zijn leven. Wanneer zijn grootmoeder sterft heeft hij de kans om het huurcontract van haar appartement in het chique Upper West Side in Manhattan over te nemen. De portier en een advocaat overtuigen hem om zich 12 dagen in te sluiten, de tijd die noodzakelijk is om de overeenkomst wettelijk op zijn naam te krijgen. Wanneer hij echter ingesloten zit begint hij vreemde geluiden te horen en vinden er onverklaarbare gebeurtenissen plaats in appartement 1003.\n\n25 year old Danny Hill's grandmother just died giving Danny the chance to move into her enormous rent controlled apartment in Manhattan...\n\n------------------------ Dutch Friends ------------------------\n---------------------------------------------------------------\n- Bezoek ook eens mijn vrienden op: &lt;a href=&quot; http://www.Film-Test.nl&quot; rel=&quot;nofollow&quot; target=&quot;_NEW&quot;&gt; http://www.Film-Test.nl&lt;/a&gt; --\n----- voor mijn Nederlandse Sync. ondertitels ---- en meer ----\n------- http://www.Film-Test.nl ---- voor Films en meer -------\n---------------------------------------------------------------\n\nGeneral:\n\nComplete name                    : Occupant\\Occupant.avi\nFormat                           : AVI\nFormat/Info                      : Audio Video Interleave\nFile size                        : 1.28 GiB\nDuration                         : 1h 24mn\nOverall bit rate                 : 2 164 Kbps\n\nVideo:\n\nFormat                           : MPEG-4 Visual\nFormat profile                   : Simple@L3\nFormat settings, BVOP            : No\nFormat settings, QPel            : No\nFormat settings, GMC             : No warppoints\nFormat settings, Matrix          : Default (H.263)\nCodec ID                         : XVID\nCodec ID/Hint                    : XviD\nDuration                         : 1h 24mn\nBit rate                         : 1 705 Kbps\nWidth                            : 720 pixels\nHeight                           : 304 pixels\nDisplay aspect ratio             : 2.35:1\nFrame rate                       : 25.000 fps\nColor space                      : YUV\nChroma subsampling               : 4:2:0\nBit depth                        : 8 bits\nScan type                        : Progressive\nCompression mode                 : Lossy\nBits/(Pixel*Frame)               : 0.312\nStream size                      : 1.01 GiB (79%)\nWriting library                  : XviD 1.1.2 (UTC 2006-11-01)\n\nAudio:\n\nFormat                           : AC-3\nFormat/Info                      : Audio Coding 3\nMode extension                   : CM (complete main)\nCodec ID                         : 2000\nDuration                         : 1h 24mn\nBit rate mode                    : Constant\nBit rate                         : 448 Kbps\nChannel(s)                       : 6 channels\nChannel positions                : Front: L C R, Side: L R, LFE\nSampling rate                    : 48.0 KHz\nBit depth                        : 16 bits\nCompression mode                 : Lossy\nStream size                      : 271 MiB (21%)\nAlignment                        : Aligned on interleaves\nInterleave, duration             : 32 ms (0.80 video frame)\nInterleave, preload duration     : 288 ms\n\n","torrent":{"xt":"urn:btih:3b5dad8d5aeb93d14dd6c26333172a5d414107f9","amp;dn":"Occupant+2011+DVDrip+English+Klam","amp;tr":["udp%3A%2F%2Ftracker.openbittorrent.com%3A80","udp%3A%2F%2Fopen.demonii.com%3A1337","udp%3A%2F%2Ftracker.coppersurfer.tk%3A6969","udp%3A%2F%2Fexodus.desync.com%3A6969"],"infoHash":"3b5dad8d5aeb93d14dd6c26333172a5d414107f9","infoHashBuffer":{"type":"Buffer","data":[59,93,173,141,90,235,147,209,77,214,194,99,51,23,42,93,65,65,7,249]},"announce":[],"urlList":[]}}